<svg width="964" height="365" viewBox="0 0 964 365" fill="none" xmlns="http://www.w3.org/2000/svg">
<path d="M34.9698 364.815C27.6151 364.815 21.3324 363.519 16.1191 360.927C10.8991 358.34 6.91109 354.296 4.14709 348.799C1.37776 343.305 0.000427246 336.213 0.000427246 327.532C0.000427246 314.861 3.07909 305.481 9.23909 299.392C15.3991 293.303 23.9751 290.255 34.9698 290.255C40.9178 290.255 46.2884 291.272 51.0871 293.303C55.8818 295.332 59.6978 298.395 62.5324 302.489C65.3671 306.585 66.7858 311.784 66.7858 318.081H52.8191C52.8191 314.583 52.0644 311.621 50.5604 309.208C49.0578 306.793 46.9724 304.955 44.3138 303.695C41.6511 302.435 38.6044 301.807 35.1778 301.807C30.4138 301.807 26.4604 302.733 23.3111 304.591C20.1631 306.444 17.8351 309.192 16.3258 312.832C14.8231 316.472 14.0684 320.987 14.0684 326.379V328.687C14.0684 334.148 14.8231 338.699 16.3258 342.339C17.8351 345.984 20.1431 348.712 23.2564 350.529C26.3738 352.352 30.3484 353.263 35.1778 353.263C38.8164 353.263 42.0004 352.651 44.7351 351.425C47.4631 350.2 49.5791 348.377 51.0871 345.964C52.5911 343.549 53.3458 340.592 53.3458 337.089H66.7858C66.7858 343.392 65.3831 348.591 62.5831 352.685C59.7844 356.781 55.9871 359.824 51.1938 361.817C46.3951 363.817 40.9884 364.815 34.9698 364.815Z" fill="black"/>
<path d="M112.045 353.263C115.685 353.263 118.889 352.736 121.653 351.688C124.423 350.636 126.745 349.082 128.639 347.011C130.527 344.951 131.965 342.395 132.941 339.347C133.924 336.3 134.415 332.787 134.415 328.792V326.484C134.415 322.424 133.924 318.856 132.941 315.774C131.965 312.69 130.527 310.119 128.639 308.054C126.745 305.988 124.423 304.428 121.653 303.38C118.889 302.334 115.685 301.807 112.045 301.807C108.405 301.807 105.201 302.334 102.437 303.38C99.6734 304.428 97.3454 305.988 95.4574 308.054C93.5641 310.119 92.1468 312.69 91.2001 315.774C90.2588 318.856 89.7828 322.424 89.7828 326.484V328.792C89.7828 332.787 90.2588 336.3 91.2001 339.347C92.1468 342.395 93.5641 344.951 95.4574 347.011C97.3454 349.082 99.6734 350.636 102.437 351.688C105.201 352.736 108.405 353.263 112.045 353.263ZM112.045 364.815C104.553 364.815 98.0788 363.468 92.6174 360.77C87.1601 358.078 82.9734 353.962 80.0681 348.434C77.1628 342.9 75.7148 335.935 75.7148 327.532C75.7148 319.063 77.1628 312.083 80.0681 306.586C82.9734 301.088 87.1601 296.992 92.6174 294.299C98.0788 291.602 104.553 290.255 112.045 290.255C119.608 290.255 126.097 291.602 131.524 294.299C136.951 296.992 141.117 301.088 144.023 306.586C146.928 312.083 148.381 319.063 148.381 327.532C148.381 335.935 146.928 342.9 144.023 348.434C141.117 353.962 136.951 358.078 131.524 360.77C126.097 363.468 119.608 364.815 112.045 364.815Z" fill="black"/>
<path d="M161.087 363.554V291.516H174.735V351.689H210.863V363.554H161.087Z" fill="black"/>
<path d="M220.942 363.554V291.516H234.59V351.689H270.718V363.554H220.942Z" fill="black"/>
<path d="M297.496 336.669H321.753L314.509 317.14C314.227 316.436 313.892 315.545 313.512 314.461C313.123 313.373 312.723 312.184 312.303 310.888C311.883 309.597 311.463 308.281 311.043 306.949C310.623 305.624 310.237 304.429 309.888 303.381H309.361C308.941 304.783 308.435 306.393 307.837 308.211C307.245 310.032 306.668 311.748 306.107 313.359C305.545 314.968 305.089 316.228 304.74 317.14L297.496 336.669ZM273.345 363.555L301.384 291.515H318.605L346.745 363.555H331.939L326.163 348.221H293.188L287.417 363.555H273.345Z" fill="black"/>
<path d="M368.902 351.896H392.739C395.61 351.896 397.974 351.107 399.831 349.532C401.685 347.957 402.61 345.492 402.61 342.131C402.61 340.172 402.226 338.456 401.457 336.983C400.687 335.515 399.518 334.376 397.938 333.571C396.363 332.767 394.349 332.367 391.905 332.367H368.902V351.896ZM368.902 320.916H390.958C393.058 320.916 394.825 320.536 396.258 319.761C397.695 318.992 398.778 317.944 399.518 316.613C400.251 315.281 400.617 313.813 400.617 312.204C400.617 309.121 399.797 306.848 398.151 305.375C396.506 303.907 394.349 303.173 391.691 303.173H368.902V320.916ZM355.254 363.555V291.515H394.526C398.379 291.515 401.826 292.249 404.869 293.723C407.915 295.191 410.315 297.256 412.066 299.913C413.813 302.576 414.689 305.689 414.689 309.263C414.689 311.992 414.162 314.477 413.114 316.72C412.066 318.957 410.645 320.829 408.862 322.333C407.075 323.841 405.061 324.981 402.823 325.751V326.171C405.481 326.727 407.865 327.795 409.966 329.369C412.066 330.949 413.707 332.944 414.902 335.359C416.091 337.773 416.683 340.557 416.683 343.705C416.683 348.185 415.686 351.896 413.691 354.837C411.697 357.779 409.034 359.965 405.709 361.397C402.383 362.835 398.657 363.555 394.526 363.555H355.254Z" fill="black"/>
<path d="M462.465 353.263C466.105 353.263 469.309 352.736 472.073 351.688C474.842 350.636 477.165 349.082 479.058 347.011C480.946 344.951 482.385 342.395 483.361 339.347C484.344 336.3 484.834 332.787 484.834 328.792V326.484C484.834 322.424 484.344 318.856 483.361 315.774C482.385 312.69 480.946 310.119 479.058 308.054C477.165 305.988 474.842 304.428 472.073 303.38C469.309 302.334 466.105 301.807 462.465 301.807C458.825 301.807 455.621 302.334 452.857 303.38C450.093 304.428 447.765 305.988 445.877 308.054C443.984 310.119 442.566 312.69 441.62 315.774C440.678 318.856 440.202 322.424 440.202 326.484V328.792C440.202 332.787 440.678 336.3 441.62 339.347C442.566 342.395 443.984 344.951 445.877 347.011C447.765 349.082 450.093 350.636 452.857 351.688C455.621 352.736 458.825 353.263 462.465 353.263ZM462.465 364.815C454.973 364.815 448.498 363.468 443.037 360.77C437.58 358.078 433.393 353.962 430.488 348.434C427.582 342.9 426.134 335.935 426.134 327.532C426.134 319.063 427.582 312.083 430.488 306.586C433.393 301.088 437.58 296.992 443.037 294.299C448.498 291.602 454.973 290.255 462.465 290.255C470.028 290.255 476.517 291.602 481.944 294.299C487.37 296.992 491.537 301.088 494.442 306.586C497.348 312.083 498.801 319.063 498.801 327.532C498.801 335.935 497.348 342.9 494.442 348.434C491.537 353.962 487.37 358.078 481.944 360.77C476.517 363.468 470.028 364.815 462.465 364.815Z" fill="black"/>
<path d="M525.159 325.33H548.369C551.867 325.33 554.565 324.313 556.454 322.282C558.346 320.253 559.289 317.454 559.289 313.879C559.289 311.571 558.867 309.627 558.033 308.053C557.193 306.479 555.962 305.269 554.353 304.429C552.743 303.593 550.749 303.173 548.369 303.173H525.159V325.33ZM511.511 363.554V291.515H549.417C554.737 291.515 559.151 292.426 562.65 294.243C566.153 296.066 568.774 298.658 570.526 302.014C572.278 305.375 573.153 309.334 573.153 313.879C573.153 318.573 572.101 322.723 569.999 326.327C567.903 329.931 564.821 332.645 560.761 334.462L575.674 363.554H560.761L547.529 336.775H525.159V363.554H511.511Z" fill="black"/>
<path d="M603.501 336.669H627.758L620.514 317.14C620.231 316.436 619.897 315.545 619.517 314.461C619.127 313.373 618.727 312.184 618.307 310.888C617.887 309.597 617.467 308.281 617.047 306.949C616.627 305.624 616.242 304.429 615.893 303.381H615.366C614.946 304.783 614.439 306.393 613.842 308.211C613.25 310.032 612.673 311.748 612.111 313.359C611.55 314.968 611.094 316.228 610.745 317.14L603.501 336.669ZM579.349 363.555L607.389 291.515H624.61L652.75 363.555H637.943L632.167 348.221H599.193L593.422 363.555H579.349Z" fill="black"/>
<path d="M669.971 363.554V303.274H646.974V291.516H706.722V303.274H683.623V363.554H669.971Z" fill="black"/>
<path d="M717.332 291.515H730.98V363.553H717.332V291.515Z" fill="black"/>
<path d="M780.022 353.263C783.662 353.263 786.866 352.736 789.63 351.688C792.399 350.636 794.722 349.082 796.615 347.011C798.503 344.951 799.942 342.395 800.918 339.347C801.9 336.3 802.391 332.787 802.391 328.792V326.484C802.391 322.424 801.9 318.856 800.918 315.774C799.942 312.69 798.503 310.119 796.615 308.054C794.722 305.988 792.399 304.428 789.63 303.38C786.866 302.334 783.662 301.807 780.022 301.807C776.382 301.807 773.178 302.334 770.414 303.38C767.65 304.428 765.322 305.988 763.434 308.054C761.54 310.119 760.123 312.69 759.176 315.774C758.234 318.856 757.759 322.424 757.759 326.484V328.792C757.759 332.787 758.234 336.3 759.176 339.347C760.123 342.395 761.54 344.951 763.434 347.011C765.322 349.082 767.65 350.636 770.414 351.688C773.178 352.736 776.382 353.263 780.022 353.263ZM780.022 364.815C772.53 364.815 766.055 363.468 760.594 360.77C755.136 358.078 750.95 353.962 748.044 348.434C745.139 342.9 743.691 335.935 743.691 327.532C743.691 319.063 745.139 312.083 748.044 306.586C750.95 301.088 755.136 296.992 760.594 294.299C766.055 291.602 772.53 290.255 780.022 290.255C787.584 290.255 794.074 291.602 799.5 294.299C804.927 296.992 809.094 301.088 811.999 306.586C814.904 312.083 816.358 319.063 816.358 327.532C816.358 335.935 814.904 342.9 811.999 348.434C809.094 353.962 804.927 358.078 799.5 360.77C794.074 363.468 787.584 364.815 780.022 364.815Z" fill="black"/>
<path d="M829.069 363.554V291.516H842.089L872.855 334.042C873.205 334.462 873.625 335.045 874.117 335.778C874.607 336.513 875.063 337.232 875.483 337.93C875.903 338.629 876.182 339.19 876.323 339.61H876.845V336.776V334.042V291.516H889.975V363.554H877.058L846.183 320.709C845.622 319.868 844.974 318.836 844.239 317.61C843.506 316.385 842.999 315.53 842.717 315.04H842.195V317.818V320.709V363.554H829.069Z" fill="black"/>
<path d="M932.816 364.815C928.827 364.815 925.011 364.375 921.371 363.499C917.731 362.628 914.512 361.261 911.712 359.403C908.908 357.551 906.706 355.243 905.096 352.473C903.482 349.709 902.682 346.435 902.682 342.657C902.682 342.237 902.696 341.817 902.732 341.397C902.768 340.977 902.783 340.659 902.783 340.451H916.542C916.542 340.592 916.522 340.856 916.486 341.236C916.451 341.625 916.435 341.955 916.435 342.237C916.435 344.545 917.099 346.525 918.43 348.171C919.762 349.816 921.684 351.076 924.206 351.947C926.727 352.828 929.703 353.263 933.13 353.263C935.443 353.263 937.488 353.121 939.275 352.843C941.063 352.564 942.602 352.16 943.898 351.633C945.194 351.107 946.262 350.479 947.102 349.745C947.936 349.011 948.55 348.185 948.939 347.275C949.319 346.368 949.516 345.387 949.516 344.333C949.516 342.308 948.883 340.628 947.623 339.296C946.363 337.965 944.667 336.847 942.531 335.935C940.394 335.024 937.979 334.204 935.287 333.465C932.588 332.731 929.824 331.981 926.99 331.207C924.155 330.437 921.386 329.512 918.694 328.428C916 327.34 913.58 326.029 911.45 324.489C909.312 322.951 907.618 321.007 906.356 318.659C905.096 316.315 904.463 313.5 904.463 310.204C904.463 306.848 905.182 303.907 906.615 301.387C908.052 298.865 910.083 296.785 912.71 295.14C915.332 293.495 918.395 292.269 921.898 291.46C925.395 290.66 929.212 290.255 933.343 290.255C937.19 290.255 940.815 290.66 944.211 291.46C947.608 292.269 950.599 293.529 953.191 295.241C955.778 296.957 957.808 299.129 959.282 301.751C960.75 304.379 961.488 307.512 961.488 311.151V312.412H947.936V311.364C947.936 309.333 947.324 307.617 946.099 306.216C944.874 304.819 943.163 303.731 940.956 302.961C938.75 302.191 936.178 301.807 933.236 301.807C930.088 301.807 927.39 302.105 925.152 302.697C922.91 303.295 921.194 304.171 920.004 305.325C918.815 306.479 918.222 307.896 918.222 309.577C918.222 311.328 918.85 312.796 920.111 313.985C921.371 315.18 923.067 316.193 925.203 317.033C927.339 317.873 929.754 318.643 932.452 319.341C935.144 320.045 937.908 320.795 940.743 321.6C943.583 322.404 946.347 323.336 949.04 324.384C951.739 325.432 954.154 326.748 956.29 328.321C958.42 329.896 960.122 331.84 961.382 334.148C962.643 336.461 963.27 339.225 963.27 342.445C963.27 347.836 961.959 352.18 959.332 355.465C956.71 358.76 953.1 361.14 948.519 362.608C943.932 364.076 938.699 364.815 932.816 364.815Z" fill="black"/>
<path d="M109.755 259.687C95.2253 259.687 81.3227 258.16 68.0733 255.115C54.8093 252.071 43.0827 247.314 32.8853 240.852C22.688 234.395 14.656 226.346 8.796 216.71C2.92533 207.082 0 195.682 0 182.511C0 181.05 0.0586738 179.588 0.190674 178.126C0.317341 176.659 0.380005 175.566 0.380005 174.83H50.4773C50.4773 175.324 50.4133 176.236 50.288 177.576C50.156 178.918 50.0973 180.076 50.0973 181.05C50.0973 189.099 52.516 195.988 57.3653 201.715C62.2027 207.446 69.2173 211.835 78.3973 214.884C87.5733 217.934 98.408 219.456 110.904 219.456C119.32 219.456 120.287 218.967 126.784 217.99C133.288 217.022 138.889 215.615 143.612 213.786C148.328 211.956 152.217 209.763 155.279 207.203C158.336 204.643 160.565 201.78 161.967 198.604C163.369 195.439 164.075 192.022 164.075 188.363C164.075 181.296 161.777 175.444 157.187 170.808C152.603 166.18 146.415 162.275 138.641 159.104C130.863 155.939 122.068 153.071 112.255 150.511C102.436 147.951 92.3653 145.33 82.0413 142.648C71.7173 139.967 61.6413 136.736 51.828 132.951C42.0107 129.175 33.2147 124.604 25.4413 119.236C17.6627 113.879 11.4813 107.11 6.89067 98.939C2.30533 90.7697 0.00800578 80.9604 0.00800578 69.4937C0.00800578 57.791 2.62133 47.5497 7.84933 38.7697C13.072 29.9937 20.472 22.7417 30.0307 17.011C39.5907 11.2804 50.7427 7.01104 63.4907 4.20837C76.2387 1.4057 90.1307 0.000361344 105.177 0.000361344C119.195 0.000361344 132.392 1.4057 144.76 4.20837C157.124 7.01104 168.023 11.4004 177.456 17.3737C186.889 23.351 194.283 30.907 199.637 40.0497C204.992 49.1977 207.669 60.1097 207.669 72.7857V77.175H158.336V73.5163C158.336 66.4497 156.101 60.4777 151.643 55.5937C147.179 50.719 140.935 46.9443 132.903 44.2577C124.871 41.5763 115.507 40.2364 104.797 40.2364C93.324 40.2364 83.5067 41.2737 75.348 43.3404C67.1853 45.4177 60.94 48.4617 56.608 52.4884C52.2707 56.511 50.1107 61.4497 50.1107 67.3017C50.1107 73.395 52.4027 78.5164 56.9933 82.659C61.5827 86.8124 67.76 90.3404 75.5387 93.2697C83.312 96.1923 92.1067 98.879 101.925 101.314C111.739 103.758 121.815 106.379 132.139 109.182C142.468 111.983 152.533 115.214 162.352 118.874C172.164 122.527 180.96 127.099 188.739 132.588C196.512 138.071 202.699 144.84 207.289 152.884C211.875 160.934 214.172 170.571 214.172 181.78C214.172 200.56 209.392 215.676 199.832 227.138C190.267 238.599 177.135 246.884 160.439 252.006C143.737 257.127 131.172 259.687 109.755 259.687Z" fill="black"/>
<path d="M365.406 219.456C378.661 219.456 382.702 217.627 392.778 213.967C402.844 210.308 411.324 204.885 418.206 197.692C425.094 190.5 430.317 181.599 433.89 170.989C437.458 160.384 439.245 148.132 439.245 134.231V126.187C439.245 112.049 437.458 99.6093 433.89 88.8787C430.317 78.1533 425.094 69.192 418.206 61.9947C411.324 54.8067 402.844 49.3786 392.778 45.72C382.702 42.06 378.661 40.236 365.406 40.236C352.146 40.236 340.478 42.06 330.413 45.72C320.337 49.3786 311.862 54.8067 304.98 61.9947C298.097 69.192 292.933 78.1533 289.492 88.8787C286.05 99.6093 284.332 112.049 284.332 126.187V134.231C284.332 148.132 286.05 160.384 289.492 170.989C292.933 181.599 298.097 190.5 304.98 197.692C311.862 204.885 320.337 210.308 330.413 213.967C340.478 217.627 352.146 219.456 365.406 219.456ZM365.406 259.687C338.124 259.687 314.54 254.995 294.656 245.604C274.766 236.22 259.53 221.896 248.954 202.632C238.372 183.368 233.086 159.104 233.086 129.845C233.086 100.345 238.372 76.0213 248.954 56.8733C259.53 37.736 274.766 23.472 294.656 14.0827C314.54 4.69732 338.124 -4.86652e-06 365.406 -4.86652e-06C392.942 -4.86652e-06 408.962 4.69732 428.725 14.0827C448.482 23.472 463.656 37.736 474.237 56.8733C484.814 76.0213 490.106 100.345 490.106 129.845C490.106 159.104 484.814 183.368 474.237 202.632C463.656 221.896 448.482 236.22 428.725 245.604C408.962 254.995 392.942 259.687 365.406 259.687Z" fill="black"/>
<path d="M771.194 255.297V4.39036H820.912V209.241H963.27V255.297H771.194Z" fill="black"/>
<path d="M573.958 103.529H658.028L633.777 166.054C632.754 168.489 631.542 171.594 630.145 175.38C628.738 179.154 627.278 183.302 625.745 187.813C624.217 192.325 622.689 196.896 621.16 201.533C619.626 206.16 618.225 210.308 616.949 213.968H615.037C613.508 209.088 611.658 203.478 609.492 197.142C607.326 190.797 605.224 184.825 603.184 179.22C601.14 173.605 599.485 169.22 598.209 166.054L573.958 103.529ZM751.182 4.39036H697.26L676.226 57.7903H556.144L535.11 4.39036H483.865L585.972 255.297H648.69L751.182 4.39036Z" fill="black"/>
</svg>
